<?xml version="1.0" standalone="no"?>
<!DOCTYPE svg PUBLIC "-//W3C//DTD SVG 20010904//EN"
 "http://www.w3.org/TR/2001/REC-SVG-20010904/DTD/svg10.dtd">
<svg version="1.0" xmlns="http://www.w3.org/2000/svg"
 width="512.000000pt" height="512.000000pt" viewBox="0 0 512.000000 512.000000"
 preserveAspectRatio="xMidYMid meet">
<metadata>
Created by potrace 1.11, written by Peter Selinger 2001-2013
</metadata>
<g transform="translate(0.000000,512.000000) scale(0.100000,-0.100000)"
fill="#000000" stroke="none">
<path d="M355 5020 c-115 -37 -219 -142 -255 -259 -20 -62 -20 -97 -20 -2201
0 -2104 0 -2139 20 -2201 37 -118 137 -219 257 -258 63 -21 64 -21 1803 -21
1739 0 1740 0 1803 21 120 39 217 136 256 256 21 62 21 80 21 773 l0 710 240
0 240 0 0 320 0 320 -240 0 -240 0 0 80 0 80 320 0 320 0 0 320 0 320 -320 0
-320 0 0 80 0 80 400 0 400 0 0 320 0 320 -400 0 -400 0 0 159 0 158 -72 5
c-151 10 -242 100 -242 238 0 138 91 228 242 238 l72 5 0 78 0 79 -1912 -1
c-1860 0 -1915 -1 -1973 -19z m3448 -206 c-18 -37 -33 -73 -33 -80 0 -12 -251
-14 -1629 -14 l-1628 0 -34 -23 c-64 -43 -79 -78 -79 -183 0 -52 -2 -94 -5
-94 -15 0 -63 31 -86 57 -47 49 -63 93 -63 163 0 112 64 197 174 231 14 4 788
8 1721 8 l1696 1 -34 -66z m-2638 -334 l-80 -80 -262 0 -263 0 0 80 0 80 342
0 343 0 -80 -80z m937 -23 l-102 -102 0 -438 c0 -240 -3 -437 -7 -437 -5 0
-77 23 -160 51 l-153 51 0 249 0 249 -80 0 -80 0 0 -249 0 -249 -153 -51 c-83
-28 -155 -51 -160 -51 -4 0 -7 181 -7 402 l0 403 137 137 138 138 365 0 365 0
-103 -103z m1668 89 c0 -7 15 -43 33 -80 l34 -66 -781 0 -781 0 80 80 80 80
667 0 c561 0 668 -2 668 -14z m-3415 -287 c45 -16 82 -19 210 -19 l155 0 0
-2000 0 -2000 -128 0 c-163 0 -217 15 -277 75 -81 81 -75 -90 -75 2077 l0
1929 30 -21 c17 -12 55 -30 85 -41z m685 -514 c0 -272 3 -495 7 -495 5 0 131
41 280 91 l273 91 273 -91 c149 -50 275 -91 280 -91 4 0 7 223 7 495 l0 495
960 0 960 0 -2 -1912 -3 -1913 -22 -40 c-25 -47 -64 -85 -113 -111 -34 -18
-94 -19 -1547 -22 l-1513 -2 0 2000 0 2000 80 0 80 0 0 -495z m3840 15 l0
-160 -320 0 -320 0 0 160 0 160 320 0 320 0 0 -160z m-160 -800 l0 -160 -240
0 -240 0 0 160 0 160 240 0 240 0 0 -160z m-160 -800 l0 -160 -160 0 -160 0 0
160 0 160 160 0 160 0 0 -160z"/>
<path d="M2971 3590 c-346 -73 -604 -352 -647 -697 -6 -49 -13 -65 -48 -103
-23 -25 -53 -68 -67 -97 -22 -46 -29 -52 -69 -63 -109 -28 -218 -121 -268
-227 -24 -52 -27 -70 -27 -163 0 -93 3 -111 27 -163 38 -80 117 -161 197 -200
l66 -32 745 0 745 0 58 27 c80 38 160 117 200 197 30 61 32 72 32 171 0 98 -2
109 -32 169 l-31 65 18 45 c57 146 65 361 20 506 -83 264 -280 461 -545 545
-79 25 -295 36 -374 20z m342 -186 c182 -58 346 -219 409 -402 19 -57 23 -87
23 -197 0 -77 -5 -147 -13 -173 -13 -42 -13 -42 -40 -28 -15 8 -47 19 -70 26
-35 9 -42 14 -36 28 13 31 17 211 5 257 -22 86 -63 158 -131 226 -99 99 -197
139 -342 139 -187 0 -345 -95 -427 -258 l-30 -60 -73 -4 c-40 -3 -75 -3 -78
-1 -8 7 32 108 67 165 152 252 461 371 736 282z m-131 -295 c149 -31 254 -161
251 -314 0 -33 -6 -73 -12 -88 l-11 -29 -37 33 c-20 17 -62 44 -93 58 -49 23
-68 26 -164 26 l-108 0 -42 38 c-22 22 -61 50 -86 65 -25 14 -46 27 -48 28 -8
5 49 83 82 112 46 40 87 61 139 72 60 11 70 11 129 -1z m-420 -337 c58 -25
118 -79 158 -142 l32 -49 51 26 c41 21 66 27 117 27 101 0 171 -46 220 -144
12 -25 24 -47 26 -49 1 -1 33 7 70 19 75 25 130 23 192 -9 82 -42 126 -116
126 -211 0 -95 -43 -167 -129 -213 -40 -22 -42 -22 -745 -22 -669 0 -707 1
-740 19 -90 48 -134 119 -134 216 0 78 24 131 84 182 47 41 98 58 173 58 l55
0 6 43 c19 126 119 235 243 267 54 13 143 5 195 -18z"/>
<path d="M2800 1120 l0 -80 560 0 560 0 0 80 0 80 -560 0 -560 0 0 -80z"/>
<path d="M1119 857 c-18 -12 -44 -38 -56 -56 -21 -31 -23 -45 -23 -161 0 -116
2 -130 23 -161 12 -18 38 -44 56 -56 l34 -23 447 0 447 0 34 23 c18 12 44 38
56 56 21 31 23 45 23 161 0 116 -2 130 -23 161 -12 18 -38 44 -56 56 l-34 23
-447 0 -447 0 -34 -23z m881 -217 l0 -80 -400 0 -400 0 0 80 0 80 400 0 400 0
0 -80z"/>
<path d="M2800 800 l0 -80 560 0 560 0 0 80 0 80 -560 0 -560 0 0 -80z"/>
<path d="M2800 480 l0 -80 80 0 80 0 0 80 0 80 -80 0 -80 0 0 -80z"/>
<path d="M3120 480 l0 -80 80 0 80 0 0 80 0 80 -80 0 -80 0 0 -80z"/>
<path d="M3440 480 l0 -80 80 0 80 0 0 80 0 80 -80 0 -80 0 0 -80z"/>
<path d="M3760 480 l0 -80 80 0 80 0 0 80 0 80 -80 0 -80 0 0 -80z"/>
</g>
</svg>
