<?xml version="1.0" standalone="no"?>
<!DOCTYPE svg PUBLIC "-//W3C//DTD SVG 20010904//EN"
 "http://www.w3.org/TR/2001/REC-SVG-20010904/DTD/svg10.dtd">
<svg version="1.0" xmlns="http://www.w3.org/2000/svg"
 width="100.000000pt" height="100.000000pt" viewBox="0 0 100.000000 100.000000"
 preserveAspectRatio="xMidYMid meet">
<metadata>
Created by potrace 1.11, written by Peter Selinger 2001-2013
</metadata>
<g transform="translate(0.000000,100.000000) scale(0.100000,-0.100000)"
fill="#000000" stroke="none">
<path d="M386 919 c-23 -18 -35 -20 -85 -14 -52 6 -62 4 -80 -14 -21 -21 -21
-29 -21 -377 0 -330 1 -355 17 -343 12 11 78 15 302 17 179 3 291 8 299 14 9
8 12 83 11 332 -1 176 -6 331 -10 344 -8 21 -13 22 -147 22 -125 0 -139 2
-155 20 -24 28 -95 27 -131 -1z"/>
</g>
</svg>
